<svg width="498" height="470" viewBox="0 0 498 470" fill="none" xmlns="http://www.w3.org/2000/svg">
<g filter="url(#filter0_d_72_3)">
<ellipse cx="167.5" cy="134" rx="103.5" ry="103" fill="url(#paint0_linear_72_3)"/>
</g>
<g filter="url(#filter1_bd_72_3)">
<path fill-rule="evenodd" clip-rule="evenodd" d="M445.067 183.598C445.067 183.854 445.066 184.109 445.064 184.365C465.19 195.512 478.815 216.966 478.815 241.602C478.815 255.211 474.657 267.85 467.542 278.316C468.018 280.592 468.268 282.951 468.268 285.369C468.268 304.298 452.923 319.644 433.993 319.644H69.0944C50.1648 319.644 34.8193 304.298 34.8193 285.369C34.8193 285 34.8251 284.633 34.8366 284.268C24.9672 272.816 19 257.906 19 241.602C19 205.49 48.2745 176.215 84.3865 176.215C97.8233 176.215 110.313 180.269 120.701 187.219C131.946 147.981 168.09 119.266 210.941 119.266C212.73 119.266 214.507 119.316 216.271 119.415C237.937 83.9093 277.039 60.207 321.676 60.207C389.823 60.207 445.067 115.451 445.067 183.598Z" fill="url(#paint1_linear_72_3)" fill-opacity="0.5" shape-rendering="crispEdges"/>
</g>
<g opacity="0.5" filter="url(#filter2_b_72_3)">
<path d="M358 409.83C358 422.074 347.926 432 335.5 432C323.074 432 313 422.074 313 409.83C313 397.586 323.074 334 335.5 334C347.926 334 358 397.586 358 409.83Z" fill="url(#paint2_radial_72_3)"/>
</g>
<g opacity="0.5" filter="url(#filter3_b_72_3)">
<path d="M270 447.83C270 460.074 259.703 470 247 470C234.297 470 224 460.074 224 447.83C224 435.586 234.297 372 247 372C259.703 372 270 435.586 270 447.83Z" fill="url(#paint3_radial_72_3)"/>
</g>
<g opacity="0.5" filter="url(#filter4_b_72_3)">
<path d="M167 409.83C167 422.074 157.15 432 145 432C132.85 432 123 422.074 123 409.83C123 397.586 132.85 334 145 334C157.15 334 167 397.586 167 409.83Z" fill="url(#paint4_radial_72_3)"/>
</g>
<defs>
<filter id="filter0_d_72_3" x="20" y="-9" width="295" height="294" filterUnits="userSpaceOnUse" color-interpolation-filters="sRGB">
<feFlood flood-opacity="0" result="BackgroundImageFix"/>
<feColorMatrix in="SourceAlpha" type="matrix" values="0 0 0 0 0 0 0 0 0 0 0 0 0 0 0 0 0 0 127 0" result="hardAlpha"/>
<feMorphology radius="4" operator="dilate" in="SourceAlpha" result="effect1_dropShadow_72_3"/>
<feOffset dy="4"/>
<feGaussianBlur stdDeviation="20"/>
<feComposite in2="hardAlpha" operator="out"/>
<feColorMatrix type="matrix" values="0 0 0 0 1 0 0 0 0 0.72 0 0 0 0 0 0 0 0 0.68 0"/>
<feBlend mode="normal" in2="BackgroundImageFix" result="effect1_dropShadow_72_3"/>
<feBlend mode="normal" in="SourceGraphic" in2="effect1_dropShadow_72_3" result="shape"/>
</filter>
<filter id="filter1_bd_72_3" x="0" y="45.207" width="497.815" height="297.437" filterUnits="userSpaceOnUse" color-interpolation-filters="sRGB">
<feFlood flood-opacity="0" result="BackgroundImageFix"/>
<feGaussianBlur in="BackgroundImageFix" stdDeviation="6.5"/>
<feComposite in2="SourceAlpha" operator="in" result="effect1_backgroundBlur_72_3"/>
<feColorMatrix in="SourceAlpha" type="matrix" values="0 0 0 0 0 0 0 0 0 0 0 0 0 0 0 0 0 0 127 0" result="hardAlpha"/>
<feOffset dy="4"/>
<feGaussianBlur stdDeviation="9.5"/>
<feComposite in2="hardAlpha" operator="out"/>
<feColorMatrix type="matrix" values="0 0 0 0 0 0 0 0 0 0 0 0 0 0 0 0 0 0 0.25 0"/>
<feBlend mode="normal" in2="effect1_backgroundBlur_72_3" result="effect2_dropShadow_72_3"/>
<feBlend mode="normal" in="SourceGraphic" in2="effect2_dropShadow_72_3" result="shape"/>
</filter>
<filter id="filter2_b_72_3" x="298" y="319" width="75" height="128" filterUnits="userSpaceOnUse" color-interpolation-filters="sRGB">
<feFlood flood-opacity="0" result="BackgroundImageFix"/>
<feGaussianBlur in="BackgroundImageFix" stdDeviation="7.5"/>
<feComposite in2="SourceAlpha" operator="in" result="effect1_backgroundBlur_72_3"/>
<feBlend mode="normal" in="SourceGraphic" in2="effect1_backgroundBlur_72_3" result="shape"/>
</filter>
<filter id="filter3_b_72_3" x="209" y="357" width="76" height="128" filterUnits="userSpaceOnUse" color-interpolation-filters="sRGB">
<feFlood flood-opacity="0" result="BackgroundImageFix"/>
<feGaussianBlur in="BackgroundImageFix" stdDeviation="7.5"/>
<feComposite in2="SourceAlpha" operator="in" result="effect1_backgroundBlur_72_3"/>
<feBlend mode="normal" in="SourceGraphic" in2="effect1_backgroundBlur_72_3" result="shape"/>
</filter>
<filter id="filter4_b_72_3" x="108" y="319" width="74" height="128" filterUnits="userSpaceOnUse" color-interpolation-filters="sRGB">
<feFlood flood-opacity="0" result="BackgroundImageFix"/>
<feGaussianBlur in="BackgroundImageFix" stdDeviation="7.5"/>
<feComposite in2="SourceAlpha" operator="in" result="effect1_backgroundBlur_72_3"/>
<feBlend mode="normal" in="SourceGraphic" in2="effect1_backgroundBlur_72_3" result="shape"/>
</filter>
<linearGradient id="paint0_linear_72_3" x1="227.421" y1="31" x2="7.4487" y2="313.251" gradientUnits="userSpaceOnUse">
<stop stop-color="#FDFD95"/>
<stop offset="1" stop-color="#FF9900"/>
</linearGradient>
<linearGradient id="paint1_linear_72_3" x1="100.766" y1="285.305" x2="550.961" y2="30.3863" gradientUnits="userSpaceOnUse">
<stop stop-color="#D9D9D9"/>
<stop offset="1" stop-color="white"/>
</linearGradient>
<radialGradient id="paint2_radial_72_3" cx="0" cy="0" r="1" gradientUnits="userSpaceOnUse" gradientTransform="translate(327.531 432) rotate(-61.2461) scale(178.321 81.6388)">
<stop stop-color="#00C2FF"/>
<stop offset="1" stop-color="#5B22FF"/>
</radialGradient>
<radialGradient id="paint3_radial_72_3" cx="0" cy="0" r="1" gradientUnits="userSpaceOnUse" gradientTransform="translate(238.854 470) rotate(-60.7119) scale(179.246 83.0224)">
<stop stop-color="#00C2FF"/>
<stop offset="1" stop-color="#5B22FF"/>
</radialGradient>
<radialGradient id="paint4_radial_72_3" cx="0" cy="0" r="1" gradientUnits="userSpaceOnUse" gradientTransform="translate(137.208 432) rotate(-61.7858) scale(177.412 80.2337)">
<stop stop-color="#00C2FF"/>
<stop offset="1" stop-color="#5B22FF"/>
</radialGradient>
</defs>
</svg>
