<svg width="500" height="420" viewBox="0 0 500 420" fill="none" xmlns="http://www.w3.org/2000/svg">
<g filter="url(#filter0_bd_72_4)">
<path fill-rule="evenodd" clip-rule="evenodd" d="M462.972 214.69C462.972 214.826 462.971 214.961 462.97 215.097C473.647 221.01 480.874 232.391 480.874 245.461C480.874 252.68 478.669 259.385 474.894 264.937C475.147 266.145 475.28 267.396 475.28 268.679C475.28 278.721 467.139 286.861 457.097 286.861H263.522C253.48 286.861 245.339 278.721 245.339 268.679C245.339 268.483 245.342 268.288 245.348 268.094C240.113 262.019 236.947 254.11 236.947 245.461C236.947 226.303 252.477 210.774 271.634 210.774C278.762 210.774 285.388 212.924 290.898 216.611C296.864 195.795 316.038 180.562 338.77 180.562C339.719 180.562 340.662 180.589 341.598 180.641C353.091 161.806 373.834 149.232 397.514 149.232C433.665 149.232 462.972 178.539 462.972 214.69Z" fill="url(#paint0_linear_72_4)" fill-opacity="0.5" shape-rendering="crispEdges"/>
</g>
<g filter="url(#filter1_bd_72_4)">
<path fill-rule="evenodd" clip-rule="evenodd" d="M382.484 87.9824C382.484 88.0263 382.484 88.0702 382.483 88.1141C394.335 94.6786 402.358 107.312 402.358 121.82C402.358 129.834 399.91 137.277 395.72 143.44C396 144.781 396.148 146.17 396.148 147.593C396.148 158.741 387.111 167.777 375.964 167.777H161.082C149.934 167.777 140.898 158.741 140.898 147.593C140.898 147.376 140.901 147.16 140.908 146.945C135.096 140.201 131.582 131.421 131.582 121.82C131.582 100.554 148.821 83.3152 170.087 83.3152C177.999 83.3152 185.355 85.7019 191.472 89.7948C198.094 66.6885 219.378 49.7787 244.612 49.7787C245.666 49.7787 246.712 49.8082 247.751 49.8663C260.51 28.9579 283.536 15 309.822 15C349.953 15 382.485 47.5321 382.485 87.6624C382.485 87.7691 382.484 87.8758 382.484 87.9824Z" fill="url(#paint1_linear_72_4)" fill-opacity="0.5" shape-rendering="crispEdges"/>
</g>
<g filter="url(#filter2_bd_72_4)">
<path fill-rule="evenodd" clip-rule="evenodd" d="M338.644 184.068C338.644 184.26 338.644 184.452 338.642 184.643C353.741 193.007 363.962 209.102 363.962 227.584C363.962 237.794 360.843 247.276 355.506 255.128C355.863 256.835 356.05 258.605 356.05 260.419C356.05 274.62 344.538 286.133 330.337 286.133H56.5819C42.3804 286.133 30.8679 274.62 30.8679 260.419C30.8679 260.142 30.8723 259.867 30.881 259.593C23.4767 251.001 19 239.815 19 227.584C19 200.492 40.9624 178.53 68.0543 178.53C78.1349 178.53 87.5053 181.57 95.2983 186.785C103.734 157.348 130.85 135.805 162.998 135.805C164.34 135.805 165.674 135.843 166.997 135.917C183.251 109.28 212.586 91.4979 246.074 91.4979C297.199 91.4979 338.644 132.943 338.644 184.068Z" fill="url(#paint2_linear_72_4)" fill-opacity="0.5" shape-rendering="crispEdges"/>
</g>
<g opacity="0.5" filter="url(#filter3_b_72_4)">
<path d="M384 403.712C384 412.708 376.613 420 367.5 420C358.387 420 351 412.708 351 403.712C351 394.717 358.387 348 367.5 348C376.613 348 384 394.717 384 403.712Z" fill="url(#paint3_radial_72_4)"/>
</g>
<g opacity="0.5" filter="url(#filter4_b_72_4)">
<path d="M316 368.033C316 377.404 308.837 385 300 385C291.163 385 284 377.404 284 368.033C284 358.663 291.163 310 300 310C308.837 310 316 358.663 316 368.033Z" fill="url(#paint4_radial_72_4)"/>
</g>
<g opacity="0.5" filter="url(#filter5_b_72_4)">
<path d="M248 403.712C248 412.708 240.837 420 232 420C223.163 420 216 412.708 216 403.712C216 394.717 223.163 348 232 348C240.837 348 248 394.717 248 403.712Z" fill="url(#paint5_radial_72_4)"/>
</g>
<g opacity="0.5" filter="url(#filter6_b_72_4)">
<path d="M181 368.033C181 377.404 173.165 385 163.5 385C153.835 385 146 377.404 146 368.033C146 358.663 153.835 310 163.5 310C173.165 310 181 358.663 181 368.033Z" fill="url(#paint6_radial_72_4)"/>
</g>
<g opacity="0.5" filter="url(#filter7_b_72_4)">
<path d="M123 403.712C123 412.708 115.613 420 106.5 420C97.3873 420 90 412.708 90 403.712C90 394.717 97.3873 348 106.5 348C115.613 348 123 394.717 123 403.712Z" fill="url(#paint7_radial_72_4)"/>
</g>
<defs>
<filter id="filter0_bd_72_4" x="217.947" y="134.232" width="281.927" height="175.629" filterUnits="userSpaceOnUse" color-interpolation-filters="sRGB">
<feFlood flood-opacity="0" result="BackgroundImageFix"/>
<feGaussianBlur in="BackgroundImageFix" stdDeviation="6.5"/>
<feComposite in2="SourceAlpha" operator="in" result="effect1_backgroundBlur_72_4"/>
<feColorMatrix in="SourceAlpha" type="matrix" values="0 0 0 0 0 0 0 0 0 0 0 0 0 0 0 0 0 0 127 0" result="hardAlpha"/>
<feOffset dy="4"/>
<feGaussianBlur stdDeviation="9.5"/>
<feComposite in2="hardAlpha" operator="out"/>
<feColorMatrix type="matrix" values="0 0 0 0 0 0 0 0 0 0 0 0 0 0 0 0 0 0 0.25 0"/>
<feBlend mode="normal" in2="effect1_backgroundBlur_72_4" result="effect2_dropShadow_72_4"/>
<feBlend mode="normal" in="SourceGraphic" in2="effect2_dropShadow_72_4" result="shape"/>
</filter>
<filter id="filter1_bd_72_4" x="112.582" y="0" width="308.776" height="190.777" filterUnits="userSpaceOnUse" color-interpolation-filters="sRGB">
<feFlood flood-opacity="0" result="BackgroundImageFix"/>
<feGaussianBlur in="BackgroundImageFix" stdDeviation="6.5"/>
<feComposite in2="SourceAlpha" operator="in" result="effect1_backgroundBlur_72_4"/>
<feColorMatrix in="SourceAlpha" type="matrix" values="0 0 0 0 0 0 0 0 0 0 0 0 0 0 0 0 0 0 127 0" result="hardAlpha"/>
<feOffset dy="4"/>
<feGaussianBlur stdDeviation="9.5"/>
<feComposite in2="hardAlpha" operator="out"/>
<feColorMatrix type="matrix" values="0 0 0 0 0 0 0 0 0 0 0 0 0 0 0 0 0 0 0.25 0"/>
<feBlend mode="normal" in2="effect1_backgroundBlur_72_4" result="effect2_dropShadow_72_4"/>
<feBlend mode="normal" in="SourceGraphic" in2="effect2_dropShadow_72_4" result="shape"/>
</filter>
<filter id="filter2_bd_72_4" x="0" y="76.4979" width="382.962" height="232.635" filterUnits="userSpaceOnUse" color-interpolation-filters="sRGB">
<feFlood flood-opacity="0" result="BackgroundImageFix"/>
<feGaussianBlur in="BackgroundImageFix" stdDeviation="6.5"/>
<feComposite in2="SourceAlpha" operator="in" result="effect1_backgroundBlur_72_4"/>
<feColorMatrix in="SourceAlpha" type="matrix" values="0 0 0 0 0 0 0 0 0 0 0 0 0 0 0 0 0 0 127 0" result="hardAlpha"/>
<feOffset dy="4"/>
<feGaussianBlur stdDeviation="9.5"/>
<feComposite in2="hardAlpha" operator="out"/>
<feColorMatrix type="matrix" values="0 0 0 0 0 0 0 0 0 0 0 0 0 0 0 0 0 0 0.25 0"/>
<feBlend mode="normal" in2="effect1_backgroundBlur_72_4" result="effect2_dropShadow_72_4"/>
<feBlend mode="normal" in="SourceGraphic" in2="effect2_dropShadow_72_4" result="shape"/>
</filter>
<filter id="filter3_b_72_4" x="336" y="333" width="63" height="102" filterUnits="userSpaceOnUse" color-interpolation-filters="sRGB">
<feFlood flood-opacity="0" result="BackgroundImageFix"/>
<feGaussianBlur in="BackgroundImageFix" stdDeviation="7.5"/>
<feComposite in2="SourceAlpha" operator="in" result="effect1_backgroundBlur_72_4"/>
<feBlend mode="normal" in="SourceGraphic" in2="effect1_backgroundBlur_72_4" result="shape"/>
</filter>
<filter id="filter4_b_72_4" x="269" y="295" width="62" height="105" filterUnits="userSpaceOnUse" color-interpolation-filters="sRGB">
<feFlood flood-opacity="0" result="BackgroundImageFix"/>
<feGaussianBlur in="BackgroundImageFix" stdDeviation="7.5"/>
<feComposite in2="SourceAlpha" operator="in" result="effect1_backgroundBlur_72_4"/>
<feBlend mode="normal" in="SourceGraphic" in2="effect1_backgroundBlur_72_4" result="shape"/>
</filter>
<filter id="filter5_b_72_4" x="201" y="333" width="62" height="102" filterUnits="userSpaceOnUse" color-interpolation-filters="sRGB">
<feFlood flood-opacity="0" result="BackgroundImageFix"/>
<feGaussianBlur in="BackgroundImageFix" stdDeviation="7.5"/>
<feComposite in2="SourceAlpha" operator="in" result="effect1_backgroundBlur_72_4"/>
<feBlend mode="normal" in="SourceGraphic" in2="effect1_backgroundBlur_72_4" result="shape"/>
</filter>
<filter id="filter6_b_72_4" x="131" y="295" width="65" height="105" filterUnits="userSpaceOnUse" color-interpolation-filters="sRGB">
<feFlood flood-opacity="0" result="BackgroundImageFix"/>
<feGaussianBlur in="BackgroundImageFix" stdDeviation="7.5"/>
<feComposite in2="SourceAlpha" operator="in" result="effect1_backgroundBlur_72_4"/>
<feBlend mode="normal" in="SourceGraphic" in2="effect1_backgroundBlur_72_4" result="shape"/>
</filter>
<filter id="filter7_b_72_4" x="75" y="333" width="63" height="102" filterUnits="userSpaceOnUse" color-interpolation-filters="sRGB">
<feFlood flood-opacity="0" result="BackgroundImageFix"/>
<feGaussianBlur in="BackgroundImageFix" stdDeviation="7.5"/>
<feComposite in2="SourceAlpha" operator="in" result="effect1_backgroundBlur_72_4"/>
<feBlend mode="normal" in="SourceGraphic" in2="effect1_backgroundBlur_72_4" result="shape"/>
</filter>
<linearGradient id="paint0_linear_72_4" x1="280.323" y1="268.645" x2="519.148" y2="133.413" gradientUnits="userSpaceOnUse">
<stop stop-color="#D9D9D9"/>
<stop offset="1" stop-color="white"/>
</linearGradient>
<linearGradient id="paint1_linear_72_4" x1="179.733" y1="147.556" x2="444.844" y2="-2.56093" gradientUnits="userSpaceOnUse">
<stop stop-color="#D9D9D9"/>
<stop offset="1" stop-color="white"/>
</linearGradient>
<linearGradient id="paint2_linear_72_4" x1="80.3427" y1="260.371" x2="418.088" y2="69.1258" gradientUnits="userSpaceOnUse">
<stop stop-color="#D9D9D9"/>
<stop offset="1" stop-color="white"/>
</linearGradient>
<radialGradient id="paint3_radial_72_4" cx="0" cy="0" r="1" gradientUnits="userSpaceOnUse" gradientTransform="translate(361.656 420) rotate(-61.2909) scale(130.956 59.8941)">
<stop stop-color="#00C2FF"/>
<stop offset="1" stop-color="#5B22FF"/>
</radialGradient>
<radialGradient id="paint4_radial_72_4" cx="0" cy="0" r="1" gradientUnits="userSpaceOnUse" gradientTransform="translate(294.333 385) rotate(-62.9852) scale(134.296 58.9943)">
<stop stop-color="#00C2FF"/>
<stop offset="1" stop-color="#5B22FF"/>
</radialGradient>
<radialGradient id="paint5_radial_72_4" cx="0" cy="0" r="1" gradientUnits="userSpaceOnUse" gradientTransform="translate(226.333 420) rotate(-62.0275) scale(130.051 58.4833)">
<stop stop-color="#00C2FF"/>
<stop offset="1" stop-color="#5B22FF"/>
</radialGradient>
<radialGradient id="paint6_radial_72_4" cx="0" cy="0" r="1" gradientUnits="userSpaceOnUse" gradientTransform="translate(157.302 385) rotate(-60.8538) scale(136.988 63.2568)">
<stop stop-color="#00C2FF"/>
<stop offset="1" stop-color="#5B22FF"/>
</radialGradient>
<radialGradient id="paint7_radial_72_4" cx="0" cy="0" r="1" gradientUnits="userSpaceOnUse" gradientTransform="translate(100.656 420) rotate(-61.2909) scale(130.956 59.8941)">
<stop stop-color="#00C2FF"/>
<stop offset="1" stop-color="#5B22FF"/>
</radialGradient>
</defs>
</svg>
